<svg width="141" height="149" viewBox="0 0 141 149" fill="none" xmlns="http://www.w3.org/2000/svg">
<path d="M29.667 8.13993C36.167 -4.36006 70.7883 2.13992 70.2883 8.13992C69.7883 14.1399 34.1616 14.3297 27.2883 49.6399C27.2883 49.6399 23.167 20.6399 29.667 8.13993Z" fill="black" stroke="black"/>
<path d="M110.627 8.13993C104.127 -4.36006 69.5054 2.13992 70.0054 8.13992C70.5054 14.1399 106.132 14.3297 113.005 49.6399C113.005 49.6399 117.127 20.6399 110.627 8.13993Z" fill="black" stroke="black"/>
<path d="M34.3299 119C43.6559 80.7055 24.2721 47.7217 28.3299 14C28.3299 14 17.8299 49 11.8299 83.5C5.82994 118 34.3299 119 34.3299 119Z" fill="black" stroke="black"/>
<path d="M105.568 116C96.2418 77.7055 115.626 44.7217 111.568 11C111.568 11 122.068 46 128.068 80.5C134.068 115 105.568 116 105.568 116Z" fill="black" stroke="black"/>
<path d="M95.5 1H46.5L69.5 8L95.5 1Z" fill="black" stroke="black"/>
</svg>
